PathFileType	4	(X/Y/Z)	RBDS025static.trc
DataRate	CameraRate	NumFrames	NumMarkers	Units	OrigDataRate	OrigDataStartFrame	OrigNumFrames
150.000000	150.000000	4	48	mm	150.000000	56	150
Frame#	Time	L.Ankle			L.Ankle.Medial			L.ASIS			L.GTR			L.Heel.Bottom			L.Heel.Lateral			L.Heel.Top			L.HF			L.Iliac.Crest			L.Knee			L.Knee.Medial			L.MT1			L.MT2			L.MT5			L.PSIS			L.Shank.Bottom.Lateral			L.Shank.Bottom.Medial			L.Shank.Top.Lateral			L.Shank.Top.Medial			L.Thigh.Bottom.Lateral			L.Thigh.Bottom.Medial			L.Thigh.Top.Lateral			L.Thigh.Top.Medial			L.TT			R.Ankle			R.Ankle.Medial			R.ASIS			R.GTR			R.Heel.Bottom			R.Heel.Lateral			R.Heel.Top			R.HF			R.Iliac.Crest			R.Knee			R.Knee.Medial			R.MT1			R.MT2			R.MT5			R.PSIS			R.Shank.Bottom.Lateral			R.Shank.Bottom.Medial			R.Shank.Top.Lateral			R.Shank.Top.Medial			R.Thigh.Bottom.Lateral			R.Thigh.Bottom.Medial			R.Thigh.Top.Lateral			R.Thigh.Top.Medial			R.TT			
		X1	Y1	Z1	X2	Y2	Z2	X3	Y3	Z3	X4	Y4	Z4	X5	Y5	Z5	X6	Y6	Z6	X7	Y7	Z7	X8	Y8	Z8	X9	Y9	Z9	X10	Y10	Z10	X11	Y11	Z11	X12	Y12	Z12	X13	Y13	Z13	X14	Y14	Z14	X15	Y15	Z15	X16	Y16	Z16	X17	Y17	Z17	X18	Y18	Z18	X19	Y19	Z19	X20	Y20	Z20	X21	Y21	Z21	X22	Y22	Z22	X23	Y23	Z23	X24	Y24	Z24	X25	Y25	Z25	X26	Y26	Z26	X27	Y27	Z27	X28	Y28	Z28	X29	Y29	Z29	X30	Y30	Z30	X31	Y31	Z31	X32	Y32	Z32	X33	Y33	Z33	X34	Y34	Z34	X35	Y35	Z35	X36	Y36	Z36	X37	Y37	Z37	X38	Y38	Z38	X39	Y39	Z39	X40	Y40	Z40	X41	Y41	Z41	X42	Y42	Z42	X43	Y43	Z43	X44	Y44	Z44	X45	Y45	Z45	X46	Y46	Z46	X47	Y47	Z47	X48	Y48	Z48	

57	0.3733333333333334	697.9812622070313	100.3455276489258	1055.574340820313	735.5372924804688	114.5009078979492	1130.61669921875	843.7532348632813	967.9061889648438	1126.45556640625	758.1237182617188	889.1204223632813	1068.857299804688	638.4164428710938	40.77550888061523	1097.109375	663.9791259765625	62.12918090820313	1052.97265625	648.00048828125	84.99819946289063	1097.095581054688	714.3153686523438	450.558349609375	1044.181396484375	761.0689697265625	1033.369262695313	1074.287231445313	731.1737670898438	515.2408447265625	1053.71044921875	728.6828002929688	493.9825744628906	1174.392211914063	846.927490234375	56.02719497680664	1130.142456054688	859.12451171875	68.36314392089844	1083.189331054688	818.0265502929688	49.94292068481445	1018.232421875	677.2532958984375	1012.155822753906	1178.692749023438	712.3563842773438	197.9853820800781	1042.817016601563	665.3069458007813	198.9854431152344	1073.245361328125	706.5588989257813	277.7393188476563	1033.137817382813	660.573486328125	279.3388977050781	1061.48828125	736.4823608398438	631.5700073242188	1043.702758789063	677.843994140625	626.1976318359375	1086.476440429688	727.5895385742188	740.4649047851563	1045.93505859375	675.1588134765625	735.4869384765625	1092.0009765625	773.5184326171875	419.1859741210938	1088.059814453125	697.7525634765625	103.0611419677734	1409.074340820313	732.0891723632813	118.8657073974609	1330.408569335938	848.9208374023438	982.7395629882813	1335.368041992188	771.5635375976563	898.0686645507813	1402.933349609375	635.2862548828125	40.89178466796875	1366.219360351563	661.7141723632813	62.48174285888672	1407.277221679688	643.4381713867188	85.27473449707031	1366.5078125	730.7109375	456.3834533691406	1425.460327148438	782.210205078125	1042.701416015625	1374.083618164063	737.9586181640625	522.034423828125	1416.924438476563	734.6316528320313	503.4651489257813	1295.179321289063	846.4290771484375	57.16089630126953	1329.47216796875	857.4078979492188	69.41791534423828	1372.637329101563	818.3626098632813	47.47386932373047	1440.701904296875	680.7880249023438	1019.060791015625	1276.826171875	703.3116455078125	202.7999572753906	1422.868896484375	662.4009399414063	205.8882446289063	1391.981689453125	698.90234375	286.9962158203125	1434.086059570313	656.6610107421875	285.9892883300781	1401.654296875	735.9827880859375	627.9338989257813	1423.872192382813	677.0582885742188	627.648681640625	1382.811889648438	732.7018432617188	738.6605224609375	1425.088012695313	676.960693359375	737.7449951171875	1385.141967773438	780.1881103515625	431.6038208007813	1373.142211914063	
58	0.38	697.9883422851563	100.3288040161133	1055.576293945313	735.5371704101563	114.5192489624023	1130.625854492188	843.7742919921875	967.8900756835938	1126.447509765625	758.138916015625	889.121337890625	1068.851928710938	638.4097900390625	40.78139114379883	1097.109252929688	663.9889526367188	62.12799453735352	1052.956298828125	648.0056762695313	84.9918212890625	1097.086303710938	714.3213500976563	450.5448303222656	1044.178466796875	761.0775146484375	1033.356201171875	1074.289184570313	731.19775390625	515.2217407226563	1053.695190429688	728.7030029296875	493.9962158203125	1174.392578125	846.7960205078125	56.09404754638672	1130.1845703125	859.244140625	68.93282318115234	1083.612426757813	818.0090942382813	49.93819427490234	1018.22607421875	677.28076171875	1012.138427734375	1178.688842773438	712.3523559570313	197.9807586669922	1042.810546875	665.3126831054688	198.9829406738281	1073.2421875	706.5729370117188	277.7322082519531	1033.141235351563	660.5888671875	279.3311462402344	1061.479736328125	736.4976806640625	631.5663452148438	1043.693725585938	677.758544921875	626.3052978515625	1086.439331054688	727.5838623046875	740.53857421875	1045.94921875	675.18359375	735.4751586914063	1092.003662109375	773.4992065429688	419.1466674804688	1088.026000976563	697.7567749023438	103.0649185180664	1409.074951171875	732.0809326171875	118.8439559936523	1330.406494140625	848.9395141601563	982.7477416992188	1335.381103515625	771.601806640625	898.0759887695313	1402.92431640625	635.2914428710938	40.90161514282227	1366.23828125	661.7052001953125	62.49174118041992	1407.277954101563	643.4465942382813	85.28540802001953	1366.520751953125	730.735107421875	456.3941345214844	1425.473022460938	782.2384033203125	1042.711669921875	1374.087646484375	737.972412109375	522.0463256835938	1416.930419921875	734.6441040039063	503.4772033691406	1295.193725585938	846.4270629882813	57.17805099487305	1329.460205078125	857.404541015625	69.41062927246094	1372.627563476563	818.3631591796875	47.45626449584961	1440.700317382813	680.8056640625	1019.072143554688	1276.832763671875	703.3262939453125	202.8096160888672	1422.86865234375	662.4137573242188	205.8928375244141	1391.992065429688	698.9305419921875	287.0090026855469	1434.100708007813	656.6729125976563	285.9983825683594	1401.66064453125	736.0114135742188	627.9412231445313	1423.880737304688	677.0818481445313	627.6565551757813	1382.825927734375	732.73095703125	738.6728515625	1425.091064453125	676.9859619140625	737.7542724609375	1385.1455078125	780.2071533203125	431.5867919921875	1373.12451171875	
59	0.3866666666666667	697.97607421875	100.3307418823242	1055.555053710938	735.5369873046875	114.5267715454102	1130.616821289063	843.7855224609375	967.8723754882813	1126.439697265625	758.1643676757813	889.1195068359375	1068.842895507813	638.41845703125	40.78557968139648	1097.107299804688	663.9844360351563	62.12191390991211	1052.951416015625	648.0059814453125	84.97825622558594	1097.065551757813	714.3319091796875	450.5499572753906	1044.161499023438	761.1028442382813	1033.336303710938	1074.277709960938	731.2001953125	515.22314453125	1053.684326171875	728.7031860351563	494.0068054199219	1174.40478515625	846.785888671875	56.10107040405273	1130.180419921875	859.2366943359375	68.92532348632813	1083.588500976563	817.9979858398438	49.93760681152344	1018.214904785156	677.2974243164063	1012.139038085938	1178.694458007813	712.3518676757813	197.9820709228516	1042.804565429688	665.3142700195313	198.9854431152344	1073.236938476563	706.5779418945313	277.7258911132813	1033.134155273438	660.5982055664063	279.321533203125	1061.470825195313	736.5130615234375	631.5535888671875	1043.692504882813	677.7688598632813	626.302734375	1086.430541992188	727.5874633789063	740.5382690429688	1045.942504882813	675.2061157226563	735.4821166992188	1091.991088867188	773.4961547851563	419.1028137207031	1087.994506835938	697.7503051757813	103.0694122314453	1409.06884765625	732.0918579101563	118.8476028442383	1330.40576171875	848.9642333984375	982.7589721679688	1335.375854492188	771.6300048828125	898.0762329101563	1402.935180664063	635.2850341796875	40.90822219848633	1366.220336914063	661.7047729492188	62.50025177001953	1407.279663085938	643.4403076171875	85.29640197753906	1366.52685546875	730.7537841796875	456.4033813476563	1425.471801757813	782.259521484375	1042.71484375	1374.091918945313	737.993896484375	522.0476684570313	1416.953125	734.6571044921875	503.50146484375	1295.207153320313	846.4134521484375	57.17463302612305	1329.447387695313	857.39892578125	69.38977813720703	1372.607788085938	818.3661499023438	47.45565795898438	1440.685668945313	680.8309326171875	1019.078918457031	1276.844604492188	703.329833984375	202.8138427734375	1422.873901367188	662.4143676757813	205.9039916992188	1392.002075195313	698.9326171875	287.0111389160156	1434.1015625	656.6781616210938	286.0096130371094	1401.6669921875	736.037353515625	627.9586791992188	1423.897338867188	677.1046142578125	627.6712036132813	1382.848388671875	732.756103515625	738.6834716796875	1425.1044921875	677.0094604492188	737.7606811523438	1385.155517578125	780.20849609375	431.5663146972656	1373.113525390625	
60	0.3933333333333334	697.9893798828125	100.3228530883789	1055.550170898438	735.5452270507813	114.5256958007813	1130.612915039063	843.7973022460938	967.877685546875	1126.43115234375	758.16796875	889.1193237304688	1068.837158203125	638.4071044921875	40.79879379272461	1097.110229492188	663.9820556640625	62.11774063110352	1052.937866210938	648.0065307617188	84.97596740722656	1097.063598632813	714.3218994140625	450.5465087890625	1044.16455078125	761.1040649414063	1033.337768554688	1074.27880859375	731.20703125	515.2140502929688	1053.68212890625	728.72265625	494.0158386230469	1174.398803710938	846.7984008789063	56.10649490356445	1130.174438476563	859.232666015625	68.93366241455078	1083.572509765625	818.0045166015625	49.93513488769531	1018.202941894531	677.3095092773438	1012.134765625	1178.685791015625	712.3461303710938	197.9768981933594	1042.799194335938	665.3189697265625	198.9793395996094	1073.237426757813	706.5742797851563	277.7273559570313	1033.130249023438	660.6007080078125	279.3234252929688	1061.47021484375	736.5103149414063	631.552001953125	1043.693359375	677.7920532226563	626.297607421875	1086.440673828125	727.5921020507813	740.5328369140625	1045.934326171875	675.2194213867188	735.4739379882813	1091.995849609375	773.4954833984375	419.0823059082031	1087.962890625	697.7655029296875	103.0725326538086	1409.066528320313	732.0806274414063	118.8425674438477	1330.404541015625	848.9990234375	982.7664184570313	1335.380249023438	771.6572875976563	898.0759887695313	1402.92529296875	635.2883911132813	40.91436386108398	1366.237915039063	661.7080688476563	62.49953079223633	1407.274658203125	643.4423828125	85.30078887939453	1366.528686523438	730.7640991210938	456.40576171875	1425.490112304688	782.2916870117188	1042.706176757813	1374.098876953125	738.015380859375	522.048095703125	1416.958618164063	734.661865234375	503.4949035644531	1295.213989257813	846.4074096679688	57.17274856567383	1329.452270507813	857.400390625	69.39029693603516	1372.604248046875	818.3494262695313	47.44903564453125	1440.680419921875	680.8582763671875	1019.077941894531	1276.845581054688	703.338623046875	202.8276824951172	1422.878784179688	662.4217529296875	205.9122009277344	1392.006591796875	698.9441528320313	287.0215454101563	1434.115966796875	656.6963500976563	286.0138854980469	1401.678466796875	736.054931640625	627.9481201171875	1423.90283203125	677.1246948242188	627.676513671875	1382.856689453125	732.7799072265625	738.6904296875	1425.108276367188	677.030029296875	737.7630615234375	1385.165649414063	780.2075805664063	431.5438537597656	1373.101196289063	
